0.16m3min_grf.mot
version=1
nRows=30
nColumns 19
inDegrees=yes
endheader
time	1_ground_force_vx	1_ground_force_vy	1_ground_force_vz	1_ground_force_px	1_ground_force_py	1_ground_force_pz	1_ground_torque_x	1_ground_torque_y	1_ground_torque_z	2_ground_force_vx	2_ground_force_vy	2_ground_force_vz	2_ground_force_px	2_ground_force_py	2_ground_force_pz	2_ground_torque_x	2_ground_torque_y	2_ground_torque_z
            2.502500	            0.091458	            0.000411	           -0.091939	           -0.233013	            0.005581	           -0.255695	            0.135290	           -0.064558	           -0.015501	           -0.327038	           -0.187341	            0.562620	           -0.232311	            0.006130	           -0.833667	            0.056493	           -0.037607	           -0.000159
            2.503000	            0.091066	            0.902133	           -0.179786	           -0.233013	            0.005581	           -0.255695	            0.175885	           -0.064070	           -0.128421	           -0.093576	           -0.001343	            0.281608	           -0.232311	            0.006130	           -0.833667	            0.019041	           -0.066236	            0.037456
            2.503500	            0.183453	            0.180104	            0.046174	           -0.233013	            0.005581	           -0.255695	            0.148222	           -0.018533	            0.044961	           -0.231324	           -0.739615	            0.607537	           -0.232311	            0.006130	           -0.833667	            0.000281	           -0.075689	            0.018580
            2.504000	           -0.183046	           -0.541226	            0.089848	           -0.233013	            0.005581	           -0.255695	            0.108818	           -0.008900	           -0.102099	           -0.183145	           -1.107742	            0.606203	           -0.232311	            0.006130	           -0.833667	            0.056663	           -0.084871	           -0.000328
            2.504500	            0.137936	           -0.361095	            0.135680	           -0.233013	            0.005581	           -0.255695	            0.200500	            0.000752	           -0.145002	           -0.329011	            0.364937	            0.611519	           -0.232311	            0.006130	           -0.833667	            0.056689	           -0.094256	           -0.019211
            2.505000	            0.412099	            0.181132	           -0.183675	           -0.233013	            0.005581	           -0.255695	            0.176751	           -0.036837	            0.035787	           -0.278879	           -0.555301	            0.514358	           -0.232311	            0.006130	           -0.833667	           -0.056015	           -0.094730	           -0.000313
            2.505500	            0.091180	            0.901936	           -0.133930	           -0.233013	            0.005581	           -0.255695	            0.042581	           -0.110392	           -0.109490	           -0.324359	           -0.924102	            0.606920	           -0.232311	            0.006130	           -0.833667	           -0.037290	           -0.075824	            0.018596
            2.506000	            0.000048	            0.360335	            0.047402	           -0.233013	            0.005581	           -0.255695	            0.148096	           -0.074078	            0.036898	           -0.467588	           -0.187848	            0.562679	           -0.232311	            0.006130	           -0.833667	           -0.056041	           -0.085345	            0.018571
            2.506500	           -0.182446	            0.538992	            0.415477	           -0.233013	            0.005581	           -0.255695	            0.038175	           -0.055200	           -0.083362	           -0.137686	           -0.738774	            0.466713	           -0.232311	            0.006130	           -0.833667	           -0.056041	           -0.085345	            0.018571
            2.507000	           -0.229152	            0.900891	            0.096146	           -0.233013	            0.005581	           -0.255695	            0.051572	           -0.018176	           -0.104002	           -0.138974	           -0.370813	            0.561883	           -0.232311	            0.006130	           -0.833667	           -0.018529	           -0.075555	           -0.037962
            2.507500	           -0.138637	            1.083140	           -0.361868	           -0.233013	            0.005581	           -0.255695	            0.127575	           -0.055512	           -0.006457	           -0.187256	           -0.001848	            0.328576	           -0.232311	            0.006130	           -0.833667	           -0.018485	           -0.094259	           -0.094580
            2.508000	            0.000213	           -0.540994	            0.043537	           -0.233013	            0.005581	           -0.255695	            0.129847	           -0.018541	            0.018415	           -0.421402	           -0.003531	            0.563317	           -0.232311	            0.006130	           -0.833667	           -0.018418	           -0.103980	           -0.019213
            2.508500	            0.045711	            0.721072	            0.002978	           -0.233013	            0.005581	           -0.255695	            0.036909	           -0.055110	           -0.073591	           -0.231927	           -0.555969	            0.748978	           -0.232311	            0.006130	           -0.833667	           -0.018461	           -0.094460	           -0.038030
            2.509000	            0.091132	            0.541601	           -0.181332	           -0.233013	            0.005581	           -0.255695	            0.157343	           -0.054830	           -0.128322	           -0.371229	           -0.924103	            0.560011	           -0.232311	            0.006130	           -0.833667	           -0.037264	           -0.085210	           -0.000288
            2.509500	            0.092354	           -0.541762	            0.226733	           -0.233013	            0.005581	           -0.255695	            0.084460	           -0.101611	            0.003283	           -0.280250	           -0.186670	            0.421815	           -0.232311	            0.006130	           -0.833667	            0.000204	           -0.047532	            0.075232
            2.510000	            0.137496	            0.180292	            0.000432	           -0.233013	            0.005581	           -0.255695	            0.150134	           -0.064692	            0.024006	           -0.326373	           -0.371489	            0.561963	           -0.232311	            0.006130	           -0.833667	            0.094114	           -0.047059	            0.037492
            2.510500	           -0.137026	            0.359522	            0.231167	           -0.233013	            0.005581	           -0.255695	            0.177696	            0.009223	           -0.006279	           -0.517699	            0.732222	            0.706769	           -0.232311	            0.006130	           -0.833667	           -0.018452	           -0.094528	           -0.019179
            2.511000	            0.229622	           -0.361077	            0.135453	           -0.233013	            0.005581	           -0.255695	            0.238380	            0.000237	           -0.009602	           -0.231968	           -0.555634	            0.655122	           -0.232311	            0.006130	           -0.833667	            0.019185	           -0.104114	            0.056172
            2.511500	           -0.137774	            0.721233	           -0.042423	           -0.233013	            0.005581	           -0.255695	            0.283010	            0.009314	           -0.025351	           -0.232632	           -0.371486	            0.655779	           -0.232311	            0.006130	           -0.833667	           -0.093569	           -0.095001	            0.037403
            2.512000	            0.137544	            0.540627	            0.047833	           -0.233013	            0.005581	           -0.255695	            0.147855	           -0.073773	           -0.013637	           -0.373949	           -0.187008	            0.421855	           -0.232311	            0.006130	           -0.833667	           -0.037263	           -0.094394	           -0.075722
            2.512500	           -0.137448	            0.180042	            0.046970	           -0.233013	            0.005581	           -0.255695	            0.016605	           -0.064601	           -0.043785	           -0.278132	           -0.740119	            0.701413	           -0.232311	            0.006130	           -0.833667	            0.094157	           -0.065763	           -0.019126
            2.513000	            0.183762	            0.359780	            0.184514	           -0.233013	            0.005581	           -0.255695	            0.160970	           -0.046176	            0.026007	           -0.187215	           -0.002183	            0.422433	           -0.232311	            0.006130	           -0.833667	            0.056705	           -0.094391	            0.018489
            2.513500	            0.000617	            0.359352	            0.276681	           -0.233013	            0.005581	           -0.255695	            0.137947	           -0.073427	           -0.113459	           -0.518446	            0.917040	            0.519714	           -0.232311	            0.006130	           -0.833667	            0.056671	           -0.084938	            0.018523
            2.514000	            0.091815	            0.540422	            0.093803	           -0.233013	            0.005581	           -0.255695	           -0.023159	           -0.008961	           -0.052485	           -0.328347	            0.180788	            0.610862	           -0.232311	            0.006130	           -0.833667	           -0.074809	           -0.094731	           -0.019156
            2.514500	            0.000503	            0.359548	            0.230825	           -0.233013	            0.005581	           -0.255695	            0.102439	           -0.008893	           -0.075498	           -0.141070	            0.182469	            0.329214	           -0.232311	            0.006130	           -0.833667	           -0.018488	           -0.075891	            0.056289
            2.515000	           -0.045846	            1.261458	            0.097236	           -0.233013	            0.005581	           -0.255695	            0.182998	           -0.018469	           -0.002533	           -0.186509	           -0.186666	            0.515632	           -0.232311	            0.006130	           -0.833667	            0.075414	           -0.075350	           -0.000302
            2.515500	           -0.229410	           -0.179917	           -0.091916	           -0.233013	            0.005581	           -0.255695	            0.079052	           -0.046230	           -0.028960	           -0.094138	            0.181969	            0.516906	           -0.232311	            0.006130	           -0.833667	            0.019161	           -0.103912	           -0.000379
            2.516000	            0.183159	            0.541029	           -0.043992	           -0.233013	            0.005581	           -0.255695	            0.057632	           -0.082533	           -0.124284	           -0.467005	           -0.371327	            0.374310	           -0.232311	            0.006130	           -0.833667	           -0.018503	           -0.084940	           -0.056846
            2.516500	            0.137969	           -0.541360	            0.134908	           -0.233013	            0.005581	           -0.255695	            0.182087	           -0.055115	           -0.051199	           -0.234044	           -0.002519	            0.469381	           -0.232311	            0.006130	           -0.833667	           -0.018547	           -0.066237	           -0.000228
            2.517000	            0.274878	            0.360781	           -0.044993	           -0.233013	            0.005581	           -0.255695	            0.151839	           -0.018171	           -0.026336	           -0.372497	           -0.556309	            0.702110	           -0.232311	            0.006130	           -0.833667	            0.056705	           -0.094391	            0.018489
